<!-- Generator: Adobe Illustrator 19.1.0, SVG Export Plug-In  -->
<svg version="1.1"
	 xmlns="http://www.w3.org/2000/svg" xmlns:xlink="http://www.w3.org/1999/xlink" xmlns:a="http://ns.adobe.com/AdobeSVGViewerExtensions/3.0/"
	 x="0px" y="0px" width="167.223px" height="103.706px" viewBox="0 0 167.223 103.706"
	 style="enable-background:new 0 0 167.223 103.706;" xml:space="preserve">
<style type="text/css">
	.st0{fill:#4D4D4D;}
</style>
<defs>
</defs>
<g>
	<g>
		<g>
			<g>
				<g>
					<path class="st0" d="M12.204,13.432l0.182,0.221C12.376,13.546,12.328,13.457,12.204,13.432z"/>
					<path class="st0" d="M54.323,9.524c0.011-0.02,0.025-0.032,0.033-0.056C54.33,9.49,54.323,9.507,54.323,9.524z"/>
					<path class="st0" d="M19.259,20.801l-0.009,0.001c-0.012,0.025-0.028,0.037-0.039,0.062L19.259,20.801z"/>
					<path class="st0" d="M10.635,20.756c2.269,0.139,2.94,1.177,5.246,0.581c1.12,0.008,2.291-0.326,3.37-0.535
						c0.454-0.879,1.428-0.119,1.985-0.873l0.273,0.46c0.192-0.258,0.426-0.44,0.658-0.198l-0.003,0.14
						c0.287-0.386,0.658-0.197,0.8-0.391l-0.002,0.141l0.377-0.091l-0.05,0.204c0.518-0.424,1.08-0.497,1.592-0.362l-0.088-0.575
						c1.116,0.56,1.407-0.671,2.43,0.019l-0.001,0.141c1.085-1.624,2.006,0.876,3.133-0.678c-0.14,0.194,0.093,0.292,0.092,0.433
						c0.561-0.215,1.169-0.354,1.078-1.491c0.42-0.02,0.373,0.326,0.466,0.76c-0.047-0.498,0.299-0.737,0.623-0.798l-0.133,0.206
						l0.922-0.254l-0.269-0.922c0.521,0.225,0.23,1.134,0.685,0.863l-0.077-0.778c0.7,0.091,1.211,1.233,1.931,1.747
						c2.803,0.075,5.576-2.2,8.285-1.094l0.174,0.573c0.138,0.849,0.579-1.337,0.759-0.558l0.259-0.421
						c0.1,0.143,0.294,0.288,0.165,0.496c0.28,0.004,0.272-0.136,0.444-0.415l0.353,0.499c1.136,0.296,1.955-0.822,3.124-0.743
						c1.498,0.932,3.986-0.351,5.411-1.104c1.948-1.51,4.794,1.583,6.769-0.135c0.085,0.112,0.232-0.182,0.219-0.279l1.981-0.125
						c0,0,2.394-0.221,3.766-1.213c1.375-0.991,1.708-2.743-2.341-5.801l0.024-0.19c-1.125-0.312-1.807-0.325-2.426,0.699
						c-0.26-1.129-0.892-0.009-1.188-0.348l0.012-0.096c-0.542,0.961-1.431-0.564-1.962,0.301c0.013-0.094-0.011-0.409,0.13-0.446
						c-0.439,0.2-1.034,0.529-1.149-0.133c-1.071,0.305-2.631,0.181-3.207,1.325l0.026-0.19c-0.315,0.764-0.504,0.166-0.908,0.582
						c-0.034-0.085-0.071-0.125-0.07-0.163c-0.353,0.759-1.257,0.257-1.574,0.6l-0.073-0.44L51.82,9.887l0.335,0.058
						c0.025,1.23-0.741-0.687-1.281,0.169c-0.605-0.089-0.914,2.661-1.593,2.133c-0.23,0.602,0.156-0.954-0.233-0.468
						c-0.084-0.633,0.16-0.42-0.008-0.915c-0.395,0.348-0.772-0.571-1.254-0.084l-0.075-0.492c-0.592,0.978-1.369-0.514-1.735,0.397
						c-0.667,0.483-0.631-1.419-1.268-0.373l-0.357-0.639c-0.327-0.075-0.141,0.844-0.525,0.557
						c-0.022-0.424-0.478-0.29-0.314-0.712c-0.86-0.578-1.516,1.099-2.673,0.089c-0.145,0.843-0.72,0.408-0.828,1.041
						c-0.063-0.354-1.06,0.048-0.546-0.788c0.044-0.069,0.135-0.066,0.143,0.074l0.023-0.494c-0.685-0.858-1.033,0.61-1.637,0.525
						c0.19,0.145,0.419,0.079,0.296,0.429l-0.555-0.014l0.075-0.421l-0.839-0.161l0.161,0.497c-0.425-0.222-0.647-1.072-1.029-0.308
						c-0.166,0.421,0.443,0.647,0.036,0.847c-0.567-0.293-1.416-0.742-2.112-0.832c0.116,0.566-0.069,0.561-0.247,0.695
						l-0.067-0.494c-0.661,0.755-0.365-1.067-1.033-0.454L32.712,9.4l-0.096,1.054c-0.56,1.042-0.442-0.997-1.042,0.41
						c0.277-0.11,0.232,1.081-0.139,0.897l0.046-0.487c-0.185,0.119-0.232,0.325-0.37,0.236c0.093-0.268,0-0.702-0.279-0.595
						l0.138-0.616l-0.462,0.928c-0.461-0.478-1.066,0.223-1.295-0.437c0,0-0.924-0.254-1.066,0.504
						c0.141-0.475-0.368-0.608-0.273-1.159c-0.188,0.54-0.838,1.025-1.158,0.492l0.047-0.067c-1.061-0.484-1.672,0.916-2.639,0.303
						c0.088,0.573-0.419,0.298-0.241,1.025c-0.886,0.807-1.836-1.364-2.001,0.94c-0.42,0.156-0.55-0.495-0.781-0.595l0.093-0.128
						c-0.79,0.248-1.022,0.288-1.624,0.281c-0.282,0.245-0.25,1.307-0.804,1.089c0.142-0.433-0.071-0.339-0.271-0.325
						c0.123-0.075,0.151-0.232-0.132-0.496c-0.027,0.133-0.079,0.217-0.127,0.287c-0.005-0.033-0.017-0.058-0.015-0.103
						c-0.323,0.173-0.256,0.299-0.096,0.346c-0.003,0.065,0.016,0.146,0.072,0.259c-0.386-0.518-0.964,0.106-1.058-0.613
						c-0.992,0.238-1.658,1.04-2.475,1.375c-0.12-0.366,0.053-0.708,0.286-0.868l-0.584,0.176c-0.031-0.535,0.32-0.33,0.495-0.45
						c-0.765-0.818-1.397,0.96-2.279,0.223L12.44,13.72l-0.054-0.067c0.017,0.224-0.148,0.54-0.267,0.621
						c-0.148-0.458-0.062-1.075-0.47-1.019c-0.353-0.427-0.906,0.286-1.315,0.563c0.234,0.064,0.177,0.328,0.088,0.498
						c-0.204,0.028-0.352-0.43-0.498-0.22l-0.059-0.628c0.118,0.588-0.496,0.673-0.555,0.935c-0.146-0.459,0.293-0.421,0.323-0.775
						c-0.819,0.11-0.409,0.055-1.228,0.164c-0.41,0.501,0.116,0.59-0.06,1.154c-0.38,0.147-0.733,0.609-1.201,0.258l0.174,0.549
						c-0.704,0.477-1.145,0.436-1.669-0.1c-5.187,4.861-0.793,6.28-0.793,6.28C7.083,23.045,8.102,21.352,10.635,20.756z"/>
				</g>
			</g>
		</g>
	</g>
</g>
<g>
	<g>
		<g>
			<g>
				<g>
					<path class="st0" d="M7.988,53.349L8.322,53.2C8.224,53.156,8.11,53.178,7.988,53.349z"/>
					<path class="st0" d="M68.879,41.65c0.029,0.001,0.055,0.011,0.084,0.007C68.916,41.639,68.894,41.64,68.879,41.65z"/>
					<path class="st0" d="M19.96,49.514l-0.008,0.009c0.005,0.03-0.002,0.054,0.005,0.083L19.96,49.514z"/>
					<path class="st0" d="M13.32,59.107c0.7-1.396,1.439-2.129,2.106-2.879c0.678-0.749,1.284-1.512,1.957-2.938
						c0.913-1.176,1.662-2.603,2.569-3.766c-0.166-1.113,1.318-1.401,1.431-2.485l0.565,0.14c0.05-0.368,0.197-0.719,0.58-0.713
						l0.077,0.118c0.079-0.567,0.613-0.68,0.66-0.959l0.073,0.121l0.368-0.371l0.052,0.213c0.34-0.775,0.995-1.213,1.637-1.467
						l-0.367-0.453c0.804-0.12,1.152-0.494,1.504-0.86c0.361-0.345,0.735-0.663,1.497-0.643l0.049,0.134
						c0.403-1.058,1.149-1.122,1.867-1.145c0.744,0.006,1.43-0.025,2.018-0.974c-0.145,0.242,0.188,0.251,0.218,0.39
						c0.693-0.434,1.491-0.755,1.187-1.847c0.588-0.153,0.571,0.207,0.763,0.61c-0.137-0.475,0.307-0.841,0.765-0.965L34.733,38.6
						l1.278-0.469L35.55,37.27c0.775,0.107,0.415,1.066,1.049,0.722l-0.157-0.766c1.036-0.027,1.801,1.032,2.788,1.51
						c1.928-0.053,3.9-0.545,5.92-0.693c2-0.148,4.04,0.036,5.618,1.142l0.004,0.612c-0.167,0.845,1.278-0.955,1.198-0.154
						l0.518-0.261c0.069,0.174,0.252,0.408-0.004,0.528c0.352,0.158,0.402,0.032,0.749-0.119l0.21,0.644
						c0.318,0.226,0.651,0.36,1,0.448c0.339,0.113,0.691,0.181,1.053,0.243c0.361,0.063,0.731,0.121,1.098,0.217
						c0.356,0.119,0.708,0.28,1.04,0.514c0.611,0.912,1.754,1.64,3.021,2.279c1.269,0.634,2.623,1.251,3.64,1.723
						c0.757,0.281,1.377,0.793,1.864,1.444c0.459,0.68,0.862,1.427,1.182,2.219c0.666,1.579,1.206,3.092,2.615,3.967
						c-0.051,0.148,0.315,0.218,0.398,0.165c0,0,0.086,0.151,0.214,0.378c0.125,0.229,0.312,0.522,0.451,0.841
						c0.299,0.625,0.599,1.249,0.599,1.249s0.097,0.185,0.258,0.492c0.145,0.314,0.355,0.748,0.617,1.232
						c0.264,0.484,0.559,1.025,0.853,1.565c0.308,0.535,0.67,1.05,0.989,1.505c0.674,0.892,1.496,1.475,2.384,1.066
						c0.443-0.209,0.903-0.671,1.358-1.52c0.227-0.425,0.452-0.948,0.67-1.589c0.188-0.631,0.354-1.376,0.501-2.263l0.202,0.011
						c-0.086-0.959-0.312-1.692-0.615-2.308c-0.307-0.614-0.758-1.082-1.484-1.414c0.923-0.711-0.6-1.393-0.492-1.941l0.103-0.013
						c-0.68-0.254-0.822-0.831-0.964-1.426c-0.129-0.598-0.283-1.195-0.934-1.403c0.099-0.019,0.372-0.181,0.535,0.013
						c-0.587-0.568-1.423-1.287-0.927-1.744c-0.662-0.698-1.363-1.607-2.118-2.353c-0.785-0.717-1.579-1.306-2.385-1.343
						l0.191-0.076c-1.004,0.049-0.722-0.53-1.531-0.782c0.029-0.093,0.02-0.163,0.051-0.185c-0.994,0.003-1.717-1.314-2.367-1.466
						l0.246-0.374c0,0-0.298-0.22-0.61-0.42C65.832,39.195,65.516,39,65.516,39l0.392,0.398c-0.879,0.876-0.455-1.272-1.791-1.25
						c-0.79-0.68-3.037,1.082-3.572,0.091c-0.698,0.278,0.826-0.616-0.018-0.565c0.287-0.57,0.492-0.192,0.575-0.724
						c-0.773-0.068-0.74-1.132-1.728-1.165l0.186-0.464c-1.451,0.355-1.764-1.53-2.839-1.006c-1.274-0.028-0.265-1.669-1.793-1.187
						c0,0-0.066-0.201-0.132-0.401c-0.07-0.195-0.141-0.39-0.141-0.39c-0.507-0.259-0.622,0.679-1.117,0.2
						c0.154-0.397-0.659-0.538-0.204-0.827c-0.591-0.527-1.356-0.465-2.144-0.441c-0.789-0.003-1.601-0.012-2.437-0.701
						c-0.511,0.74-1.362,0.155-1.724,0.749c-0.009-0.363-1.824-0.235-0.731-0.913c0.095-0.055,0.252-0.028,0.229,0.111l0.169-0.475
						c-0.998-1.046-1.969,0.391-2.988,0.194c0.306,0.174,0.715,0.148,0.433,0.473c0,0-0.239-0.026-0.478-0.053
						c-0.239-0.015-0.479-0.031-0.479-0.031l0.203-0.414l-1.449-0.223l0.211,0.507c-0.702-0.26-1.005-1.105-1.762-0.328
						c-0.329,0.426,0.703,0.641-0.021,0.849c-0.945-0.307-2.403-0.658-3.631-0.638c0.198,0.548-0.124,0.582-0.43,0.754l-0.12-0.485
						c-1.133,0.909-0.666-1.013-1.823-0.214l0.04-0.365l-0.113,1.093c-0.881,1.221-0.852-0.877-1.754,0.741
						c0.458-0.219,0.498,0.999-0.13,0.954l0.02-0.506c-0.297,0.191-0.348,0.415-0.59,0.38c0.12-0.304-0.09-0.702-0.548-0.484
						l0.154-0.67l-0.654,1.11c-0.851-0.257-1.726,0.735-2.243,0.197c0,0-1.597,0.29-1.637,1.108
						c0.112-0.545-0.766-0.373-0.755-0.963c-0.174,0.656-1.073,1.555-1.762,1.269l0.055-0.096c-0.937,0.159-1.532,0.721-2.1,1.231
						c-0.553,0.55-1.075,1.063-1.952,1.208c0.378,0.44-0.495,0.666,0.093,1.156c-0.912,1.487-3.346,0.625-2.372,2.757
						c-0.479,0.564-1.002,0.166-1.371,0.332l0.053-0.208c-0.931,1.058-1.179,1.372-1.952,2.062c-0.211,0.52,0.504,1.303-0.28,1.797
						c-0.116-0.501-0.306-0.174-0.533,0.079c0.095-0.205,0.027-0.361-0.486-0.213c0.056,0.134,0.051,0.259,0.04,0.371
						c-0.028-0.019-0.059-0.023-0.087-0.059c-0.268,0.523-0.1,0.533,0.119,0.374c0.04,0.052,0.117,0.089,0.26,0.105
						c-0.805,0.086-0.999,1.285-1.615,0.886c-0.935,1.462-1.007,2.894-1.503,4.211c-0.401-0.065-0.505-0.515-0.404-0.94
						l-0.426,0.918c-0.453-0.287,0.05-0.65,0.127-0.969c-0.694,0.273-0.853,0.921-0.967,1.601c-0.122,0.679-0.259,1.353-0.914,1.807
						l0.248,0.452l-0.1,0.043c0.202,0.097,0.336,0.511,0.311,0.724c-0.505-0.027-0.968-0.485-1.244,0.16
						c-0.627,0.325-0.437,1.535-0.459,2.288c0.209-0.333,0.405-0.118,0.5,0.097c-0.105,0.324-0.609,0.343-0.515,0.664l-0.603-0.19
						c0.603,0.082,0.286,1.068,0.487,1.269c-0.51,0.032-0.194-0.631-0.495-0.833c-0.429,1.328-0.201,0.67-0.576,2.013
						c0.235,0.841,0.61,0.044,1.035,0.537c-0.088,0.643,0.219,1.356-0.336,1.966l0.599-0.09c0.113,1.236-0.018,1.894-0.747,2.577
						c0.776,2.36,1.695,3.555,2.441,4.14c0.756,0.584,1.401,0.591,1.907,0.302c0.515-0.251,0.906-0.725,1.166-1.131
						c0.251-0.407,0.407-0.748,0.407-0.748c0.795-1.34,0.885-2.372,0.865-3.568c-0.007-0.594-0.073-1.231-0.042-1.929
						C13.024,60.741,13.104,59.971,13.32,59.107z"/>
				</g>
			</g>
		</g>
	</g>
</g>
<g>
	<g>
		<g>
			<g>
				<g>
					<path class="st0" d="M41.911,31.761l-0.237,0.253C41.781,32.013,41.875,31.95,41.911,31.761z"/>
					<path class="st0" d="M20.497,93.178c-0.003,0.028-0.015,0.052-0.015,0.082C20.504,93.215,20.505,93.194,20.497,93.178z"/>
					<path class="st0" d="M33.457,41.005c0.001-0.005,0.002-0.013,0.002-0.013c-0.021-0.023-0.03-0.048-0.051-0.069L33.457,41.005z"
						/>
					<path class="st0" d="M34.745,28.604c-0.305,3.283-1.411,4.096-1.168,7.479c-0.181,1.598-0.092,3.325-0.118,4.909
						c0.75,0.836-0.215,2.058,0.367,3.027l-0.523,0.278c0.198,0.335,0.311,0.714,0.011,0.983l-0.135-0.039
						c0.296,0.504,0.013,0.984,0.157,1.236l-0.136-0.04l-0.029,0.558l-0.181-0.125c0.251,0.845,0.143,1.666-0.148,2.35l0.582,0.041
						c-0.932,1.408,0.165,2.199-0.88,3.424l-0.134-0.047c1.135,2.067-1.606,2.503-0.624,4.608c-0.123-0.265-0.313,0.023-0.445-0.029
						c-0.036,0.857-0.195,1.744,0.908,2.05c-0.174,0.595-0.474,0.395-0.919,0.358c0.483,0.126,0.549,0.701,0.45,1.175l-0.127-0.266
						l-0.22,1.376l0.982-0.001c-0.467,0.635-1.157-0.139-1.135,0.601l0.752,0.212c-0.428,0.942-1.744,1.164-2.581,1.914
						c-0.772,1.865-1.068,3.953-1.563,5.955c-0.49,1.995-1.188,3.911-2.636,5.23l-0.595-0.124c-0.784-0.333,0.655,1.471-0.111,1.227
						l0.144,0.562c-0.189,0.034-0.46,0.167-0.523-0.107c-0.222,0.321-0.104,0.397-0.019,0.77l-0.669,0.096
						c-1.128,1.085-0.94,2.742-2.061,3.928c-1.96,0.945-3.446,4.168-4.636,6.002c-0.654,1.457-2.266,2.076-3.822,2.535
						c-1.585,0.46-3.089,0.759-4.043,2.039c-0.136-0.071-0.238,0.276-0.195,0.364c0,0-0.153,0.062-0.381,0.155
						c-0.227,0.099-0.534,0.215-0.845,0.315c-0.309,0.107-0.617,0.213-0.849,0.293c-0.234,0.067-0.391,0.111-0.391,0.111
						s-0.74,0.254-1.715,0.588c-0.967,0.365-2.171,0.75-3.103,1.284c-0.928,0.49-1.619,1.17-1.398,2.125
						c0.242,0.91,1.381,2.301,4.737,3.441l-0.042,0.198c1.885,0.073,3.078-0.225,3.934-1.511c0.587,1.031,1.424-0.428,1.952-0.234
						l-0.001,0.102c0.639-1.243,2.397-0.284,2.979-1.505c0.007,0.1,0.138,0.389-0.072,0.52c0.638-0.476,1.394-1.26,1.797-0.707
						c1.514-1.091,3.816-2.397,4.032-3.981l0.055,0.194c0.061-0.967,0.586-0.638,0.908-1.394c0.088,0.04,0.158,0.039,0.176,0.072
						c0.062-0.999,1.459-1.495,1.645-2.131l0.343,0.286c0,0,0.23-0.274,0.46-0.549c0.232-0.272,0.453-0.553,0.453-0.553
						l-0.434,0.322c-0.763-0.954,1.293-0.275,1.391-1.58c0.747-0.659-0.76-3.078,0.268-3.461c-0.184-0.705,0.503,0.878,0.563,0.07
						c0.527,0.361,0.126,0.496,0.643,0.657c0.167-0.722,1.186-0.535,1.328-1.476l0.431,0.252c-0.143-1.422,1.707-1.406,1.35-2.504
						c0.239-1.178,1.665,0.083,1.423-1.439l0.816-0.082c0.34-0.404-0.551-0.718,0.003-1.064c0.358,0.23,0.639-0.479,0.838,0.003
						c1.193-0.866,0.335-2.747,2.034-3.823c-0.607-0.669,0.187-1.248-0.286-1.741c0.348,0.099,0.699-1.538,1.059-0.367
						c0.028,0.1-0.039,0.229-0.164,0.167l0.408,0.292c1.233-0.549,0.181-1.818,0.653-2.644c-0.249,0.206-0.347,0.568-0.57,0.216
						l0.369-0.796l0.323,0.315l0.677-1.148l-0.542-0.002c0.459-0.51,1.35-0.443,0.903-1.36c-0.276-0.436-0.847,0.347-0.779-0.337
						c0.599-0.688,1.493-1.737,1.955-2.729c-0.58-0.072-0.469-0.343-0.498-0.663l0.486,0.111c-0.343-1.297,1.167-0.091,0.959-1.343
						l0.305,0.193l-0.916-0.578c-0.67-1.252,1.163-0.25,0.155-1.71c-0.033,0.456-1.112-0.087-0.763-0.559l0.428,0.26
						c-0.02-0.321-0.188-0.471-0.04-0.641c0.204,0.242,0.651,0.273,0.687-0.183l0.504,0.446l-0.638-1.047
						c0.676-0.505,0.283-1.674,1.005-1.775c0,0,0.652-1.302,0.004-1.782c0.387,0.38,0.731-0.342,1.209-0.007
						c-0.431-0.477-0.624-1.621,0.011-1.932l0.044,0.093c0.906-1.463-0.239-2.843,0.715-4.129c-0.58-0.036-0.147-0.73-0.905-0.671
						c-0.483-1.57,1.928-2.439-0.267-3.305c-0.029-0.679,0.64-0.711,0.804-1.039l0.097,0.175c-0.006-1.273,0.013-1.637,0.17-2.561
						c-0.168-0.491-1.213-0.681-0.864-1.477c0.388,0.312,0.35-0.034,0.385-0.343c0.042,0.204,0.193,0.283,0.516-0.096
						c-0.125-0.071-0.196-0.168-0.255-0.257c0.033,0,0.06-0.014,0.105-0.001c-0.101-0.534-0.24-0.455-0.319-0.221
						c-0.063-0.018-0.147-0.006-0.27,0.056c0.591-0.484,0.099-1.498,0.827-1.499c-0.016-1.577-0.721-2.746-0.905-4.048
						c0.382-0.125,0.692,0.195,0.81,0.581l-0.083-0.929c0.537,0.036,0.285,0.547,0.369,0.837c0.934-1.059-0.758-2.306,0.092-3.56
						l-0.418-0.28l0.072-0.075c-0.224-0.003-0.524-0.299-0.592-0.49c0.47-0.17,1.076,0.038,1.06-0.602
						c0.456-0.499-0.188-1.442-0.452-2.1c-0.077,0.355-0.337,0.239-0.502,0.086c-0.017-0.317,0.448-0.5,0.246-0.746l0.631-0.033
						c-0.593,0.127-0.645-0.829-0.903-0.943c0.466-0.186,0.404,0.489,0.757,0.567c-0.071-1.279-0.019-0.64-0.111-1.917
						c-0.494-0.67-0.592,0.137-1.154-0.176c-0.141-0.595-0.596-1.16-0.238-1.857l-0.552,0.237c-0.466-1.098-0.456-1.757,0.075-2.541
						c-2.543-3.996-4.165-4.214-5.086-3.554c-0.938,0.667-1.233,2.249-1.233,2.249C32.58,23.365,34.3,24.859,34.745,28.604z"/>
				</g>
			</g>
		</g>
	</g>
</g>
<g>
	<g>
		<g>
			<g>
				<g>
					<path class="st0" d="M44.63,59.568l-0.172,0.233C44.56,59.766,44.635,59.697,44.63,59.568z"/>
					<path class="st0" d="M73.671,89.257c0.019-0.014,0.037-0.019,0.055-0.037C73.693,89.229,73.679,89.242,73.671,89.257z"/>
					<path class="st0" d="M39.964,69.113l-0.004-0.01c-0.029-0.005-0.047-0.018-0.075-0.022L39.964,69.113z"/>
					<path class="st0" d="M37.088,59.402c0.414,2.611-0.377,3.65,1.002,6.119c0.209,0.631,0.507,1.252,0.828,1.855
						c0.334,0.598,0.713,1.169,1.041,1.727c1.001,0.192,0.771,1.508,1.725,1.822l-0.294,0.473c0.324,0.108,0.611,0.279,0.51,0.621
						l-0.129,0.054c0.502,0.144,0.52,0.612,0.77,0.68l-0.129,0.057l0.278,0.358l-0.21,0.034c0.644,0.371,1.031,0.903,1.194,1.494
						l0.464-0.353c0.116,1.412,1.385,1.1,1.394,2.454l-0.123,0.069c1.022,0.14,1.15,0.722,1.283,1.336
						c0.136,0.605,0.253,1.262,1.296,1.351c-0.258-0.024-0.18,0.25-0.298,0.329c0.565,0.411,1.097,0.904,1.96,0.159
						c0.298,0.377-0.012,0.534-0.299,0.873c0.372-0.334,0.811-0.165,1.089,0.088l-0.26,0.004l0.859,0.674l0.541-0.802
						c0.185,0.597-0.735,0.898-0.199,1.139l0.556-0.549c0.436,0.654-0.065,1.812,0.098,2.78c1.067,1.243,2.629,2.034,4.087,2.82
						c0.733,0.392,1.457,0.769,2.084,1.249c0.64,0.463,1.211,0.99,1.647,1.698l-0.206,0.569c-0.41,0.766,1.386-0.642,1.06,0.091
						l0.502-0.154c0.004,0.181,0.097,0.429-0.151,0.505c0.26,0.196,0.339,0.08,0.669-0.025l0.029,0.64
						c0.927,0.982,2.357,0.622,3.464,1.372c0.963,1.734,4.241,1.983,6.038,1.984c0.68-0.112,1.279,0.058,1.855,0.371
						c0.581,0.292,1.142,0.717,1.716,1.145c1.149,0.822,2.39,1.631,3.773,1.126c0.058,0.134,0.317-0.095,0.332-0.192
						c0,0,0.56,0.131,1.119,0.263c0.565,0.11,1.13,0.22,1.13,0.22s0.173,0.024,0.458,0.064c0.286,0.036,0.687,0.079,1.147,0.075
						c0.918,0.007,2.057-0.062,2.932-0.444c0.875-0.363,1.465-0.963,1.345-1.937c-0.108-0.988-0.953-2.294-2.645-4.213l0.065-0.18
						c-1.048-0.544-1.685-0.716-2.564,0.099c0.047-1.161-0.872-0.233-1.067-0.654l0.039-0.088c-0.812,0.747-1.204-0.97-1.98-0.317
						c0.044-0.086,0.122-0.387,0.269-0.379c-0.479,0.044-1.158,0.143-1.037-0.516c-1.122-0.057-2.491-0.796-3.493,0.018l0.102-0.162
						c-0.606,0.56-0.534-0.064-1.084,0.141c0.004-0.091-0.012-0.144,0.005-0.177c-0.662,0.547-1.273-0.323-1.714-0.173l0.136-0.425
						l-0.87-0.22l0.276,0.207c-0.564,1.098-0.346-0.947-1.234-0.479c-0.476-0.384-2.186,1.848-2.529,0.998
						c-0.526,0.381,0.645-0.722,0.039-0.527c0.262-0.582,0.365-0.268,0.478-0.779c-0.535,0.076-0.368-0.905-1.051-0.758l0.206-0.453
						c-1.055,0.48-0.861-1.21-1.691-0.669c-0.852,0.007,0.313-1.518-0.824-1.062l0.098-0.727c-0.214-0.257-0.626,0.585-0.76,0.124
						c0.242-0.349-0.203-0.517,0.188-0.751c-0.289-0.987-1.885-0.096-2.091-1.63c-0.664,0.534-0.802-0.176-1.31,0.22
						c0.191-0.304-0.821-0.678,0.131-0.944c0.08-0.021,0.144,0.041,0.054,0.149l0.352-0.348c0.089-1.072-1.145-0.263-1.523-0.743
						c0.032,0.234,0.241,0.348-0.092,0.511l-0.385-0.397l0.352-0.245c0,0-0.119-0.173-0.238-0.347
						c-0.12-0.172-0.227-0.356-0.227-0.356l-0.249,0.461c-0.129-0.466,0.345-1.205-0.468-0.959
						c-0.422,0.164-0.174,0.763-0.598,0.601c-0.182-0.608-0.393-1.542-0.76-2.122c-0.358,0.453-0.473,0.31-0.691,0.261l0.337-0.367
						c-1.005-0.017,0.589-0.943-0.284-1.073l0.293-0.194l-0.881,0.581c-1.163,0.198,0.525-0.953-0.957-0.567
						c0.257,0.151-0.72,0.837-0.805,0.428l0.42-0.255c-0.211-0.074-0.403,0.008-0.413-0.159c0.27-0.082,0.564-0.416,0.318-0.579
						l0.575-0.251l-1.015,0.169c0.124-0.652-0.802-0.743-0.388-1.302c0,0-0.28-0.908-0.995-0.618c0.474-0.14,0.315-0.635,0.83-0.852
						c-0.552,0.14-1.32-0.149-1.016-0.705l0.08,0.005c-0.105-1.138-1.639-0.962-1.537-2.115c-0.465,0.346-0.457-0.228-1.019,0.265
						c-1.16-0.428,0.42-2.245-1.746-1.404c-0.327-0.324,0.205-0.711,0.201-0.964l0.155,0.033c-0.54-0.632-0.668-0.836-0.9-1.397
						c-0.336-0.168-1.32,0.259-1.319-0.358c0.455-0.02,0.29-0.191,0.204-0.377c0.115,0.091,0.271,0.06,0.416-0.303
						c-0.134,0.021-0.231,0.002-0.315-0.019c0.029-0.016,0.048-0.037,0.091-0.051c-0.278-0.247-0.373-0.14-0.359,0.03
						c-0.062,0.02-0.131,0.066-0.217,0.16c0.346-0.551-0.453-0.891,0.193-1.221c-0.529-0.88-1.537-1.273-2.087-2.004
						c0.317-0.221,0.695-0.144,0.913,0.038l-0.332-0.526c0.506-0.178,0.407,0.222,0.57,0.361c0.586-0.97-1.339-1.107-0.829-2.178
						l-0.456-0.04l0.052-0.07c-0.213,0.07-0.561-0.023-0.668-0.124c0.411-0.253,1.032-0.309,0.881-0.699
						c0.327-0.439-0.485-0.832-0.831-1.197c-0.017,0.248-0.286,0.243-0.471,0.186c-0.069-0.203,0.352-0.438,0.117-0.546l0.606-0.175
						c-0.555,0.228-0.76-0.377-1.03-0.394c0.424-0.225,0.473,0.225,0.828,0.19c-0.268-0.801-0.142-0.398-0.373-1.209
						c-0.557-0.341-0.565,0.208-1.15,0.112c-0.204-0.37-0.718-0.678-0.442-1.21l-0.518,0.25c-0.57-0.683-0.57-1.171-0.098-1.769
						c-1.348-1.254-2.357-2-3.209-2.326c-0.838-0.33-1.462-0.236-1.936,0.019c-0.932,0.543-1.198,1.88-1.198,1.88
						C34.094,55.526,35.926,56.63,37.088,59.402z"/>
				</g>
			</g>
		</g>
	</g>
</g>
<g>
	<g>
		<g>
			<g>
				<g>
					<path class="st0" d="M112.238,8.309l-0.091,0.279C112.236,8.528,112.287,8.44,112.238,8.309z"/>
					<path class="st0" d="M96.27,42.487c0.004,0.022,0.001,0.039,0.008,0.063C96.285,42.519,96.28,42.502,96.27,42.487z"/>
					<path class="st0" d="M106.687,15.551l0-0.004c-0.023-0.006-0.038-0.01-0.06-0.015L106.687,15.551z"/>
					<path class="st0" d="M105.594,11.475c0.26,0.504,0.186,0.992,0.142,1.408c-0.049,0.428-0.033,0.759,0.346,1.197
						c0.087,0.509,0.456,0.985,0.604,1.468c0.441,0.091,0.449,0.271,0.421,0.436c-0.009,0.085-0.02,0.17,0.017,0.255
						c0.024,0.103,0.091,0.21,0.258,0.319l-0.491,0.084c0.232,0.146,0.377,0.321,0.093,0.403l-0.136-0.03
						c0.324,0.241,0.078,0.412,0.238,0.54l-0.135-0.037l0.003,0.238l-0.184-0.084c0.306,0.406,0.222,0.772-0.042,1.015l0.559,0.157
						c-0.831,0.435,0.175,1.132-0.8,1.438l-0.124-0.068c0.501,0.705,0.118,0.919-0.294,1.089c-0.401,0.18-0.815,0.323-0.438,1.101
						c-0.095-0.194-0.279-0.116-0.394-0.199c-0.088,0.446-0.272,0.879,0.668,1.528c-0.204,0.265-0.45,0.02-0.836-0.196
						c0.413,0.282,0.417,0.637,0.293,0.869l-0.089-0.21l-0.307,0.705l0.845,0.443c-0.462,0.166-0.981-0.606-1.03-0.16l0.624,0.47
						c-0.475,0.359-1.604-0.115-2.39-0.068c-1.646,1.478-1.922,4.732-4.419,5.358l-0.491-0.338
						c-0.646-0.566,0.498,1.309-0.131,0.818l0.105,0.454c-0.159-0.056-0.381-0.063-0.431-0.288c-0.186,0.144-0.09,0.246-0.022,0.549
						l-0.556-0.196c-0.939,0.358-0.767,1.64-1.613,2.167c-1.589,0.024-2.484,2.236-3.059,3.513c-0.504,2.167-4.287,0.9-4.754,3.157
						c-0.122-0.058-0.07,0.251-0.008,0.326l-1.381,0.937c0,0-1.635,1.168-2.177,2.555c-0.521,1.375-0.004,3.114,4.713,4.039
						l0.077,0.174c1.047-0.215,1.595-0.518,1.54-1.667c0.795,0.845,0.699-0.394,1.104-0.244l0.042,0.087
						c-0.095-1.06,1.415-0.183,1.353-1.165c0.041,0.085,0.232,0.337,0.142,0.435c0.23-0.377,0.503-0.934,0.956-0.438
						c0.651-0.769,1.913-1.439,1.684-2.666l0.089,0.168c-0.205-0.782,0.283-0.386,0.341-0.929c0.075,0.051,0.126,0.066,0.147,0.097
						c-0.182-0.795,0.778-0.846,0.81-1.284l0.315,0.316l0.505-0.606l-0.279,0.127c-0.755-0.97,0.955,0.165,0.833-0.802
						c0.495-0.255-0.971-2.586-0.167-2.521c-0.21-0.592,0.48,0.83,0.454,0.244c0.452,0.452,0.146,0.414,0.572,0.713
						c0.064-0.484,0.905,0.03,0.944-0.61l0.362,0.342c-0.193-1.077,1.294-0.359,0.974-1.265c0.157-0.741,1.357,0.737,1.128-0.426
						l0.663,0.283c0.278-0.131-0.449-0.722,0.006-0.723c0.292,0.309,0.523-0.054,0.684,0.359c0.983-0.067,0.326-1.705,1.791-1.638
						c-0.466-0.712,0.218-0.731-0.136-1.262c0.284,0.225,0.687-0.667,0.905,0.253c0.016,0.077-0.048,0.129-0.148,0.031l0.318,0.376
						c1.054,0.216,0.283-1.078,0.747-1.381c-0.227,0.011-0.336,0.198-0.493-0.131l0.381-0.327l0.24,0.35l0.678-0.409l-0.453-0.256
						c0.439-0.109,1.185,0.362,0.909-0.436c-0.184-0.407-0.751-0.174-0.619-0.579c0.585-0.15,1.473-0.402,2.003-0.825
						c-0.488-0.308-0.362-0.434-0.343-0.649l0.405,0.29c-0.118-0.978,1.029,0.474,1.019-0.434l0.24,0.259l-0.721-0.774
						c-0.422-1.092,1.047,0.335,0.361-1.035c-0.092,0.279-0.97-0.528-0.601-0.677l0.345,0.345c0.025-0.213-0.105-0.378,0.049-0.424
						c0.149,0.237,0.544,0.447,0.635,0.164l0.391,0.496l-0.436-0.943c0.665-0.062,0.466-0.972,1.132-0.772
						c0,0,0.19-0.154,0.314-0.379c0.119-0.232,0.169-0.535-0.106-0.805c0.313,0.387,0.717,0.019,1.123,0.404
						c-0.33-0.462-0.398-1.302,0.234-1.323l0.032,0.077c0.999-0.782,0.05-2.022,1.016-2.745c-0.562-0.137-0.103-0.55-0.848-0.643
						c-0.19-0.583,0.273-0.929,0.544-1.272c0.276-0.334,0.31-0.669-0.779-1.047c-0.047-0.464,0.63-0.443,0.77-0.675l0.107,0.129
						c-0.086-0.911-0.073-1.144-0.014-1.869c-0.224-0.364-1.255-0.397-1.048-0.976c0.435,0.165,0.34-0.071,0.322-0.294
						c0.077,0.135,0.235,0.175,0.494-0.151c-0.134-0.031-0.219-0.088-0.29-0.142c0.033-0.006,0.057-0.02,0.103-0.019
						c-0.181-0.363-0.306-0.276-0.348-0.099c-0.065-0.001-0.145,0.023-0.257,0.088c0.507-0.449-0.2-1.027,0.508-1.207
						c-0.181-0.546-0.554-0.947-0.893-1.305c-0.377-0.346-0.751-0.643-1.039-0.988c0.304-0.233,0.697-0.175,0.918,0.027
						c0,0-0.088-0.139-0.177-0.278c-0.098-0.134-0.195-0.267-0.195-0.267c0.491-0.209,0.447,0.218,0.606,0.372
						c0.27-0.532-0.127-0.834-0.5-1.117c-0.381-0.289-0.81-0.527-0.694-1.134l-0.458,0.063l0.029-0.082
						c-0.188,0.122-0.556,0.124-0.688,0.06c0.315-0.365,0.898-0.596,0.608-0.962c0.166-0.585-0.85-0.698-1.323-0.877
						c0.107,0.247-0.141,0.355-0.33,0.387c-0.154-0.151,0.079-0.562-0.187-0.546l0.43-0.462c-0.357,0.481-0.879,0.039-1.107,0.178
						c0.216-0.44,0.52-0.058,0.806-0.27c-0.723-0.608-0.374-0.299-1.15-0.856c-0.674,0.079-0.282,0.535-0.789,0.841
						c-0.417-0.136-0.961,0.045-1.175-0.514L107.1,6.125c-0.846,0.067-1.128-0.14-1.446-0.815c-1.652,0.703-2.185,1.78-2.398,2.548
						c-0.213,0.791-0.207,1.439,0.002,1.92c0.102,0.502,0.202,0.864,0.26,1.083c0.061,0.211,0.085,0.359,0.088,0.348
						c0.087,0.615,0.121,0.582,0.476,0.375C104.402,11.449,105.009,11.166,105.594,11.475z"/>
				</g>
			</g>
		</g>
	</g>
</g>
<g>
	<g>
		<g>
			<g>
				<g>
					<path class="st0" d="M119.227,29.456l-0.154,0.243C119.172,29.658,119.242,29.585,119.227,29.456z"/>
					<path class="st0" d="M104.77,62.484c0.007,0.021,0.006,0.037,0.017,0.059C104.789,62.514,104.782,62.497,104.77,62.484z"/>
					<path class="st0" d="M112.435,35.414l0-0.004c-0.022-0.009-0.036-0.015-0.058-0.024L112.435,35.414z"/>
					<path class="st0" d="M112.094,31.226c0.158,0.532-0.04,1.008-0.153,1.395c-0.133,0.408-0.185,0.736,0.116,1.23
						c-0.005,0.515,0.291,1.046,0.377,1.558c0.83,0.33-0.063,0.764,0.575,1.218l-0.495,0.048c0.211,0.164,0.34,0.347,0.062,0.412
						l-0.134-0.038c0.323,0.261,0.043,0.421,0.199,0.558l-0.134-0.044l0.001,0.24l-0.182-0.093c0.273,0.425,0.194,0.785-0.086,1.024
						l0.556,0.17c-0.84,0.42,0.162,1.123-0.812,1.422l-0.124-0.067c0.517,0.699,0.133,0.906-0.268,1.084
						c-0.396,0.184-0.804,0.344-0.389,1.096c-0.104-0.188-0.283-0.104-0.402-0.182c-0.065,0.444-0.217,0.878,0.754,1.471
						c-0.18,0.267-0.441,0.039-0.838-0.154c0.428,0.257,0.465,0.603,0.354,0.834l-0.102-0.2l-0.241,0.703l0.872,0.385
						c-0.439,0.184-1.023-0.536-1.032-0.1l0.659,0.42c-0.424,0.374-1.59-0.012-2.358,0.098c-1.477,1.607-1.237,4.696-3.574,5.508
						l-0.523-0.283c-0.706-0.488,0.672,1.212-0.007,0.794l0.167,0.426c-0.162-0.04-0.377-0.029-0.459-0.24
						c-0.159,0.153-0.051,0.243,0.059,0.527l-0.566-0.142c-0.855,0.42-0.499,1.635-1.238,2.211
						c-1.523,0.162-2.063,2.355-2.416,3.636c-0.151,2.128-3.979,1.25-4.074,3.467c-0.126-0.044-0.028,0.249,0.044,0.316
						l-1.174,1.033c0,0-1.379,1.282-1.672,2.673c-0.276,1.38,0.498,3.002,5.145,3.44l0.101,0.161
						c0.962-0.31,1.442-0.648,1.204-1.753c0.891,0.737,0.605-0.445,1.019-0.336l0.054,0.08c-0.259-1.012,1.318-0.313,1.111-1.245
						c0.052,0.078,0.275,0.303,0.204,0.405c0.163-0.381,0.333-0.946,0.845-0.51c0.507-0.795,1.606-1.557,1.204-2.709l0.112,0.154
						c-0.318-0.733,0.208-0.399,0.181-0.925c0.08,0.043,0.131,0.052,0.156,0.08c-0.294-0.745,0.621-0.877,0.581-1.303l0.35,0.276
						l0.396-0.623l-0.25,0.146c-0.874-0.866,0.948,0.08,0.679-0.841c0.438-0.286-1.319-2.392-0.538-2.4
						c-0.292-0.551,0.588,0.755,0.473,0.195c0.502,0.394,0.204,0.385,0.657,0.634c-0.01-0.469,0.877-0.047,0.819-0.662l0.399,0.297
						c-0.345-1.014,1.192-0.452,0.752-1.291c0.043-0.722,1.417,0.593,1.027-0.499l0.681,0.217c0.25-0.147-0.539-0.654-0.1-0.692
						c0.326,0.271,0.497-0.094,0.712,0.288c0.945-0.139,0.063-1.658,1.496-1.705c-0.553-0.643,0.104-0.716-0.314-1.195
						c0.305,0.191,0.569-0.691,0.91,0.17c0.027,0.072-0.028,0.127-0.138,0.041l0.362,0.334c1.051,0.124,0.127-1.047,0.528-1.375
						c-0.218,0.029-0.296,0.216-0.495-0.086l0.321-0.343l0.282,0.316l0.596-0.433l-0.474-0.212c0.41-0.128,1.192,0.261,0.811-0.466
						c-0.236-0.37-0.747-0.121-0.678-0.508c0.541-0.18,1.358-0.443,1.811-0.858c-0.51-0.27-0.404-0.391-0.412-0.59l0.427,0.257
						c-0.236-0.908,1.045,0.401,0.928-0.43l0.262,0.234l-0.787-0.702c-0.532-1.011,1.043,0.286,0.235-0.97
						c-0.06,0.262-0.996-0.475-0.653-0.623l0.37,0.317c0.002-0.2-0.141-0.352,0.004-0.398c0.169,0.221,0.571,0.407,0.632,0.147
						l0.427,0.456l-0.513-0.869c0.636-0.064,0.369-0.903,1.035-0.715c0,0,0.692-0.575,0.116-1.09
						c0.332,0.361,0.702,0.03,1.124,0.392c-0.357-0.432-0.467-1.204,0.151-1.203l0.035,0.072c0.935-0.682-0.03-1.841,0.915-2.45
						c-0.558-0.156-0.101-0.5-0.839-0.629c-0.202-0.549,0.28-0.827,0.551-1.12c0.266-0.292,0.328-0.58-0.74-1.006
						c-0.03-0.427,0.627-0.362,0.789-0.556l0.097,0.124c-0.021-0.826-0.016-1.057,0.115-1.648c-0.191-0.333-1.232-0.471-0.938-0.964
						c0.412,0.204,0.345-0.022,0.354-0.226c0.06,0.132,0.213,0.188,0.508-0.074c-0.129-0.045-0.207-0.107-0.271-0.165
						c0.033-0.001,0.059-0.011,0.104-0.004c-0.135-0.351-0.269-0.289-0.333-0.134c-0.064-0.01-0.147,0.002-0.266,0.046
						c0.573-0.343-0.049-0.961,0.68-1.029c-0.215-1.046-1.068-1.657-1.506-2.365c0.34-0.168,0.716-0.056,0.9,0.16l-0.262-0.554
						c0.522-0.118,0.384,0.269,0.524,0.43c0.349-0.443,0.044-0.781-0.267-1.096c-0.338-0.317-0.658-0.613-0.438-1.146l-0.46-0.015
						l0.048-0.072c-0.209,0.082-0.56,0.023-0.67-0.059c0.385-0.285,1.007-0.403,0.807-0.785c0.26-0.5-0.616-0.792-1.061-1.028
						c0.049,0.243-0.217,0.301-0.408,0.299c-0.113-0.165,0.227-0.509-0.026-0.543l0.526-0.35c-0.453,0.377-0.848-0.119-1.102-0.031
						c0.315-0.365,0.514,0.038,0.841-0.107c-0.553-0.678-0.244-0.357-0.842-1.005c-0.658-0.052-0.41,0.44-0.972,0.626
						c-0.33-0.223-0.894-0.163-0.924-0.731l-0.297,0.493c-0.776-0.145-0.985-0.404-1.037-1.125
						c-1.693,0.212-2.547,1.004-3.023,1.654c-0.482,0.665-0.708,1.269-0.703,1.789c-0.085,0.502-0.105,0.878-0.114,1.111
						c-0.01,0.243-0.006,0.374-0.006,0.374c-0.062,0.66,0.068,0.653,0.484,0.623C110.949,30.849,111.585,30.817,112.094,31.226z"/>
				</g>
			</g>
		</g>
	</g>
</g>
<g>
	<g>
		<g>
			<g>
				<g>
					<path class="st0" d="M118.871,47.261l0.122,0.292C119.04,47.454,119.025,47.35,118.871,47.261z"/>
					<path class="st0" d="M109.95,89.205c0.021,0.007,0.034,0.017,0.058,0.022C109.984,89.208,109.967,89.204,109.95,89.205z"/>
					<path class="st0" d="M115.168,55.963L115.168,55.963c-0.022-0.001-0.038-0.001-0.059-0.001L115.168,55.963z"/>
					<path class="st0" d="M114.822,54.747c0.225,0.08,0.2,0.484,0.086,0.786c-0.103,0.314-0.272,0.426-0.052,0.298
						c-0.072,0.088,0.178,0.008,0.312,0.13c0.212,0,0.317,0.024,0.367,0.036c0.024,0.024,0.038-0.015,0.038,0.062
						c0.001,0.066-0.004,0.133-0.011,0.2c-0.039,0.274-0.115,0.549,0.211,0.835l-0.503,0.104c0.207,0.197,0.331,0.424,0.047,0.534
						l-0.134-0.038c0.321,0.313,0.02,0.547,0.172,0.71l-0.134-0.045l-0.014,0.313l-0.18-0.103c0.251,0.526,0.141,0.999-0.173,1.338
						l0.56,0.159c-0.916,0.634,0.061,1.412-1.005,1.903l-0.123-0.069c0.476,0.819,0.021,1.121-0.414,1.393
						c-0.456,0.278-0.898,0.533-0.564,1.407c-0.084-0.218-0.292-0.092-0.408-0.172c-0.119,0.555-0.354,1.107,0.618,1.703
						c-0.226,0.347-0.478,0.103-0.881-0.08c0.431,0.258,0.417,0.673,0.27,0.965l-0.085-0.229l-0.354,0.88l0.895,0.352
						c-0.502,0.277-1.038-0.513-1.105,0.013l0.659,0.419c-0.505,0.501-1.73,0.2-2.587,0.455c-0.928,1.102-1.429,2.609-1.995,4.063
						c-0.57,1.461-1.19,2.841-2.462,3.857l-0.586-0.145c-0.801-0.319,0.787,1.304,0.023,1.063l0.209,0.477
						c-0.178,0.027-0.411,0.154-0.518-0.086c-0.16,0.289-0.035,0.354,0.112,0.671l-0.63,0.12c-0.876,1.094-0.29,2.496-0.819,3.801
						c-0.732,0.714-1.012,1.944-0.919,3.332c0.052,1.433,0.599,2.765,1.012,3.668c0.852,1.213,0.666,2.648,0.792,4.252
						c0.111,1.56,0.574,3.296,2.097,4.029c-0.029,0.152,0.351,0.17,0.423,0.103c0,0,0.108,0.133,0.27,0.332
						c0.169,0.196,0.366,0.472,0.625,0.715c0.251,0.248,0.502,0.495,0.69,0.681c0.184,0.188,0.335,0.295,0.335,0.295
						s0.177,0.129,0.471,0.343c0.291,0.214,0.72,0.488,1.267,0.724c1.04,0.534,2.559,0.809,3.68,0.611
						c1.147-0.258,1.814-0.866,1.663-1.838c-0.062-0.489-0.311-1.084-0.645-1.787c-0.167-0.337-0.347-0.739-0.513-1.188
						c-0.076-0.211-0.156-0.434-0.24-0.67c-0.07-0.249-0.132-0.51-0.184-0.766l0.097-0.161c-0.452-0.661-0.612-0.94-1.637-0.51
						c0.681-0.951-0.389-0.507-0.268-0.919l0.079-0.053c-0.472,0.128-0.519-0.194-0.524-0.494c0.007-0.33,0.044-0.631-0.427-0.595
						c0.087-0.036,0.356-0.205,0.433-0.134c-0.312-0.174-0.764-0.484-0.198-0.822c-0.557-0.624-0.643-1.756-1.811-2.026l0.191-0.01
						c-0.792-0.136-0.192-0.381-0.632-0.663c0.082-0.036,0.121-0.07,0.158-0.072c-0.773-0.237-0.267-1.029-0.571-1.286l0.444-0.042
						c0,0-0.031-0.173-0.063-0.346c-0.035-0.174-0.059-0.348-0.059-0.348c-0.009-0.002-0.092,0.261-0.092,0.261
						c-0.612-0.04-0.437-0.191-0.171-0.368c0.259-0.183,0.57-0.378,0.187-0.666c0.108-0.241-0.484-0.579-1.019-0.956
						c-0.542-0.372-0.976-0.78-0.628-1.02c-0.503-0.404,0.861,0.442,0.514-0.068c0.626,0.127,0.353,0.275,0.872,0.281
						c-0.222-0.463,0.792-0.468,0.489-1.044l0.483,0.119c-0.682-0.876,0.974-0.906,0.314-1.587c-0.151-0.776,1.53,0.15,0.891-0.851
						l0.718,0.033c0.222-0.215-0.66-0.533-0.225-0.691c0.375,0.199,0.479-0.223,0.761,0.123c0.9-0.339-0.157-1.775,1.324-2.102
						c-0.602-0.602,0.073-0.795-0.368-1.256c0.323,0.161,0.592-0.859,0.955,0.044c0.029,0.076-0.027,0.144-0.144,0.066l0.382,0.313
						c1.082-0.008,0.124-1.168,0.561-1.593c-0.229,0.06-0.317,0.28-0.518-0.032l0.352-0.429l0.284,0.32l0.651-0.563l-0.489-0.182
						c0.438-0.197,1.247,0.156,0.894-0.628c-0.221-0.397-0.788-0.051-0.683-0.502c0.593-0.271,1.491-0.676,2.018-1.203
						c-0.517-0.259-0.392-0.41-0.38-0.641l0.429,0.254c-0.151-1.036,1.076,0.355,1.045-0.611l0.254,0.246l-0.763-0.737
						c-0.452-1.132,1.083,0.218,0.364-1.172c-0.096,0.311-1.011-0.45-0.626-0.665l0.359,0.335c0.025-0.238-0.111-0.404,0.049-0.475
						c0.156,0.244,0.563,0.42,0.658,0.103l0.405,0.494l-0.448-0.972c0.683-0.146,0.49-1.117,1.176-0.957
						c0,0,0.786-0.758,0.236-1.311c0.315,0.401,0.731-0.037,1.139,0.356c-0.34-0.491-0.364-1.38,0.27-1.451l0.031,0.083
						c0.515-0.434,0.555-0.999,0.58-1.546c0.036-0.539,0.051-1.062,0.566-1.48c-0.562-0.143-0.067-0.596-0.816-0.694
						c-0.181-0.663,0.344-1.03,0.625-1.418c0.284-0.38,0.36-0.737-0.705-1.184c-0.019-0.53,0.643-0.498,0.811-0.751l0.095,0.147
						c0.005-1.021-0.01-1.32,0.127-2.065c-0.204-0.381-1.243-0.55-0.964-1.34c0.418,0.244,0.35-0.09,0.33-0.402
						c0.074,0.189,0.232,0.254,0.495-0.209c-0.133-0.045-0.216-0.127-0.286-0.203c0.033-0.008,0.057-0.029,0.103-0.027
						c-0.171-0.516-0.296-0.386-0.343-0.138c-0.064-0.001-0.145,0.034-0.258,0.125c0.252-0.305,0.248-0.694,0.218-1.004
						c-0.034-0.312-0.037-0.572,0.303-0.731c-0.187-0.778-0.55-1.328-0.968-1.749c-0.41-0.429-0.84-0.749-1.235-1.123
						c0.206-0.37,0.596-0.379,0.888-0.163c0,0-0.137-0.162-0.273-0.325c-0.144-0.156-0.291-0.305-0.291-0.305
						c0.39-0.387,0.513,0.191,0.728,0.355c0.061-0.755-0.458-1.076-0.999-1.3c-0.552-0.233-1.121-0.376-1.481-0.984l-0.434,0.276
						l-0.033-0.09c-0.102,0.197-0.482,0.387-0.669,0.417c0.039-0.462,0.469-1.003-0.134-1.097c-0.316-0.539-1.436,0.097-2.073,0.461
						c0.316,0.044,0.151,0.324-0.012,0.512c-0.276,0.056-0.382-0.403-0.636-0.15l0.036-0.655c0.052,0.591-0.847,0.834-0.945,1.134
						c-0.177-0.439,0.459-0.531,0.561-0.91c-1.264,0.359-0.636,0.187-1.886,0.569c-0.561,0.639,0.22,0.558,0.025,1.181
						c-0.254,0.13-0.456,0.329-0.616,0.452c-0.18,0.128-0.384,0.197-0.657,0.073l0.284,0.503c-0.624,0.613-1.08,0.666-1.718,0.249
						c-4.311,5.846,0.431,6.322,0.431,6.322c1.234,0.315,2.025,0.005,2.815-0.52c0.197-0.131,0.395-0.276,0.599-0.428
						c0.04-0.035,0.127-0.083,0.13-0.109l-0.001-0.075c0.001-0.051,0.005-0.103,0.013-0.156
						C114.567,55.117,114.667,54.901,114.822,54.747z"/>
				</g>
			</g>
		</g>
	</g>
</g>
<g>
	<g>
		<g>
			<g>
				<g>
					<path class="st0" d="M144.201,9.684l-0.237-0.088C144.044,9.666,144.129,9.711,144.201,9.684z"/>
					<path class="st0" d="M154.981,26.511c0.016-0.014,0.03-0.019,0.047-0.036C155.001,26.484,154.989,26.496,154.981,26.511z"/>
					<path class="st0" d="M135.025,9.902l0.003-0.009c-0.018-0.022-0.023-0.043-0.041-0.064L135.025,9.902z"/>
					<path class="st0" d="M140.175,3.537c-0.797,0.547-1.484,0.765-2.122,1.109c-0.631,0.344-1.236,0.8-1.71,1.923
						c-0.699,0.913-1.058,2.184-1.316,3.325c0.316,0.404,0.2,0.748,0.088,1.121c-0.099,0.374-0.214,0.772,0.074,1.144l-0.52,0.167
						c0.195,0.259,0.348,0.53,0.066,0.725l-0.137-0.028c0.331,0.366,0.088,0.718,0.259,0.891l-0.139-0.019
						c-0.009,0.002,0.058,0.399,0.058,0.399l-0.2-0.07c0.406,0.576,0.417,1.142,0.324,1.659l0.572-0.105
						c-0.25,0.552-0.066,0.906,0.121,1.208c0.199,0.304,0.377,0.574,0.122,1.126l-0.138,0.026c0.894,0.344,0.8,0.795,0.7,1.333
						c-0.087,0.509-0.133,1.062,0.756,1.257c-0.222-0.047-0.241,0.19-0.369,0.242c0.398,0.384,0.746,0.823,1.729,0.246
						c0.158,0.315-0.159,0.43-0.511,0.702c0.426-0.262,0.767-0.118,0.941,0.09l-0.23,0.001l0.574,0.553l0.685-0.666
						c0.005,0.475-0.878,0.751-0.461,0.927l0.625-0.469c0.199,0.516-0.536,1.517-0.591,2.32c0.642,1.024,1.826,1.572,2.878,2.104
						c1.075,0.527,2.028,1.033,2.566,2.176l-0.23,0.551c-0.401,0.769,1.147-0.789,0.802-0.074l0.399-0.221
						c-0.021,0.165,0.018,0.378-0.179,0.486c0.171,0.138,0.246,0.019,0.507-0.129l-0.059,0.576c0.554,0.776,1.66,0.189,2.329,0.746
						c0.466,1.446,2.615,1.31,3.786,1.188c1.881-0.571,1.96,3.196,3.79,2.482c-0.015,0.129,0.21-0.063,0.254-0.151
						c0,0,0.265,0.17,0.529,0.339c0.254,0.173,0.509,0.347,0.509,0.347s0.317,0.194,0.763,0.369c0.457,0.17,1.031,0.33,1.63,0.253
						c0.591-0.076,1.234-0.389,1.746-1.212c0.495-0.815,0.906-2.198,0.661-4.447l0.131-0.137c-0.471-0.826-0.904-1.196-1.848-0.635
						c0.475-1.051-0.534-0.432-0.524-0.841l0.059-0.075c-0.84,0.567-0.578-1.126-1.354-0.614c0.056-0.075,0.203-0.355,0.309-0.325
						c-0.373-0.018-0.904,0.008-0.64-0.606c-0.81-0.185-1.697-0.925-2.584-0.146l0.107-0.156c-0.552,0.546-0.378-0.05-0.816,0.158
						c0.02-0.087,0.017-0.138,0.036-0.17c-0.569,0.529-0.856-0.257-1.204-0.078l0.166-0.413l-0.586-0.149l0.164,0.178
						c-0.571,1.085-0.1-0.884-0.812-0.339c-0.291-0.305-1.814,1.97-1.942,1.24c-0.429,0.43,0.561-0.764,0.101-0.496
						c0.268-0.579,0.298-0.301,0.45-0.793c-0.392,0.146-0.143-0.788-0.642-0.56l0.21-0.451c-0.821,0.605-0.455-0.964-1.115-0.34
						c-0.602,0.137,0.437-1.432-0.436-0.816l0.182-0.673c-0.111-0.191-0.538,0.641-0.561,0.251c0.226-0.358-0.057-0.426,0.256-0.708
						c0.004-0.788-1.287,0.3-1.106-0.968c-0.6,0.591-0.536,0.015-0.993,0.438c0.21-0.293-0.432-0.425,0.324-0.817
						c0.062-0.032,0.093,0.008,0.002,0.115l0.338-0.355c0.341-0.902-0.773,0.022-0.924-0.314c-0.039,0.184,0.086,0.239-0.203,0.431
						l-0.183-0.256l0.328-0.259c0,0-0.041-0.118-0.082-0.236c-0.035-0.12-0.07-0.241-0.07-0.241l-0.315,0.407
						c0.027-0.348,0.603-0.999-0.087-0.667c-0.372,0.197-0.35,0.622-0.631,0.565c0.038-0.457,0.161-1.129,0.057-1.486
						c-0.428,0.386-0.468,0.296-0.621,0.288l0.386-0.316c-0.777,0.122,0.794-0.767,0.138-0.714l0.301-0.178l-0.902,0.528
						c-0.996,0.276,0.769-0.715-0.559-0.279c0.153,0.076-0.884,0.653-0.812,0.371l0.435-0.213c-0.144-0.032-0.337,0.043-0.282-0.069
						c0.251-0.08,0.614-0.334,0.477-0.414l0.562-0.225c0,0-0.221,0.055-0.443,0.111c-0.225,0.05-0.45,0.101-0.45,0.101
						c0.345-0.426-0.382-0.42,0.205-0.79c0,0,0.133-0.495-0.589-0.306c0.452-0.098,0.55-0.364,1.074-0.501
						c-0.51,0.111-1.021-0.049-0.533-0.32l0.068,0.002c0.225-0.27,0.008-0.361-0.215-0.485c-0.211-0.115-0.378-0.256-0.068-0.46
						c-0.571,0.08-0.291-0.137-1.018-0.027c-0.363-0.174,0.005-0.388,0.177-0.522c0.173-0.142,0.19-0.222-0.948-0.39
						c-0.105-0.217,0.551-0.181,0.672-0.254l0.117,0.058c-0.137-0.351-0.115-0.461-0.027-0.695c-0.183-0.175-1.184-0.504-0.86-0.692
						c0.375,0.218,0.33,0.089,0.361-0.001c0.043,0.083,0.178,0.145,0.49,0.133c-0.116-0.061-0.181-0.114-0.233-0.161
						c0.031,0.011,0.057,0.016,0.098,0.034c-0.08-0.198-0.21-0.226-0.293-0.177c-0.059-0.027-0.137-0.052-0.256-0.072
						c0.563,0.046,0.154-0.468,0.826-0.175c0.039-0.487-0.384-1.196-0.337-1.765c0.332,0.173,0.54,0.457,0.588,0.642
						c0,0,0.06-0.339,0.069-0.338c0.425,0.32,0.146,0.327,0.182,0.466c0.883,0.233-0.227-1.145,0.695-0.993l-0.253-0.356
						l0.071,0.026c-0.167-0.15-0.315-0.435-0.316-0.539c0.388,0.269,0.782,0.74,0.919,0.554c0.435,0.185,0.214-0.523,0.226-0.889
						c-0.151,0.036-0.298-0.183-0.366-0.345c0.084-0.098,0.453,0.2,0.39-0.014l0.429,0.462c-0.434-0.409-0.182-0.696-0.313-0.924
						c0.357,0.307,0.115,0.435,0.325,0.72c0.332-0.372,0.17-0.184,0.517-0.553c-0.089-0.544-0.414-0.431-0.659-0.945
						c0.12-0.251,0.051-0.756,0.516-0.634L145.221,6.1c0.134-0.641,0.421-0.775,1.021-0.502c0.23-2.935-0.372-4.364-1.166-5.034
						c-0.779-0.669-1.694-0.556-1.694-0.556C141.303-0.055,141.467,1.805,140.175,3.537z"/>
				</g>
			</g>
		</g>
	</g>
</g>
<g>
	<g>
		<g>
			<g>
				<g>
					<path class="st0" d="M141.067,29.86l-0.238,0.087C140.936,29.947,141.03,29.926,141.067,29.86z"/>
					<path class="st0" d="M158.391,46.2c0.013-0.017,0.025-0.024,0.037-0.045C158.405,46.17,158.396,46.184,158.391,46.2z"/>
					<path class="st0" d="M134.016,35.685l-0.002-0.008c-0.026-0.006-0.041-0.018-0.066-0.022L134.016,35.685z"/>
					<path class="st0" d="M134.028,27.735c-0.527,2.046-1.607,2.722-0.935,4.916c0.039,0.524,0.142,1.07,0.327,1.573
						c0.189,0.502,0.408,0.988,0.594,1.453c0.941,0.199,0.417,1.222,1.26,1.493l-0.372,0.367c0.299,0.084,0.534,0.216,0.369,0.487
						l-0.133,0.043c0.444,0.112,0.369,0.482,0.59,0.533l-0.132,0.048l0.191,0.28l-0.203,0.033c0.552,0.272,0.81,0.673,0.857,1.142
						l0.492-0.311c-0.144,1.139,1.103,0.759,0.878,1.865l-0.123,0.069c0.907,0.012,0.948,0.451,0.974,0.953
						c0.028,0.489,0.072,1.022,0.986,0.945c-0.225,0.018-0.19,0.237-0.303,0.321c0.453,0.266,0.868,0.601,1.7-0.179
						c0.219,0.26-0.061,0.446-0.347,0.787c0.359-0.348,0.72-0.285,0.933-0.122l-0.224,0.052l0.672,0.412l0.533-0.795
						c0.099,0.469-0.708,0.92-0.269,1.014l0.515-0.588c0.313,0.458-0.191,1.576-0.087,2.402c0.831,0.844,2.052,1.147,3.167,1.478
						c0.564,0.153,1.103,0.316,1.573,0.584c0.479,0.244,0.892,0.588,1.215,1.122l-0.157,0.573c-0.305,0.802,1.029-0.944,0.784-0.187
						l0.369-0.27c0.002,0.167,0.069,0.373-0.113,0.506c0.19,0.116,0.249-0.012,0.49-0.192l0.021,0.585
						c0.67,0.689,1.705-0.015,2.476,0.442c0.699,1.389,2.94,0.95,4.14,0.621c1.771-0.896,2.913,2.782,4.745,1.598
						c0.031,0.128,0.206-0.12,0.221-0.217l1.398,0.341c0,0,1.703,0.335,2.853-0.324c1.161-0.656,1.763-2.28-0.268-6.149l0.059-0.179
						c-0.681-0.555-1.127-0.72-1.774,0.132c0.093-1.152-0.588-0.208-0.702-0.604l0.031-0.09c-0.586,0.803-0.795-0.876-1.351-0.163
						c0.032-0.087,0.094-0.398,0.195-0.4c-0.333,0.092-0.798,0.266-0.703-0.397c-0.77,0.048-1.701-0.462-2.388,0.489l0.07-0.175
						c-0.415,0.648-0.362,0.029-0.736,0.321c0.003-0.089-0.008-0.138,0.004-0.173c-0.449,0.635-0.864-0.081-1.163,0.152l0.093-0.436
						l-0.589-0.042l0.187,0.146c-0.382,1.164-0.235-0.843-0.838-0.197c-0.322-0.256-1.49,2.229-1.73,1.521
						c-0.363,0.485,0.445-0.835,0.029-0.506c0.183-0.612,0.251-0.339,0.331-0.849c-0.367,0.199-0.245-0.766-0.713-0.464l0.146-0.476
						c-0.735,0.719-0.574-0.905-1.154-0.189c-0.588,0.22,0.245-1.477-0.547-0.756l0.09-0.692c-0.138-0.176-0.452,0.705-0.529,0.319
						c0.18-0.385-0.122-0.417,0.158-0.736c-0.159-0.794-1.309,0.435-1.375-0.855c-0.501,0.665-0.554,0.079-0.943,0.573
						c0.157-0.324-0.542-0.358,0.161-0.866c0.058-0.041,0.099-0.006,0.027,0.115l0.276-0.406c0.148-0.957-0.794,0.119-1.029-0.187
						c0.002,0.191,0.143,0.228-0.112,0.466l-0.246-0.229l0.279-0.313l-0.272-0.456l-0.228,0.463
						c-0.051-0.357,0.381-1.114-0.245-0.669c-0.332,0.26-0.21,0.691-0.509,0.677c-0.031-0.235-0.069-0.525-0.119-0.797
						c-0.029-0.277-0.074-0.533-0.162-0.704c-0.338,0.465-0.401,0.386-0.556,0.411l0.312-0.388
						c-0.749,0.274,0.602-0.895-0.025-0.743l0.257-0.234l-0.775,0.697c-0.937,0.464,0.587-0.871-0.64-0.182
						c0.174,0.049-0.719,0.83-0.718,0.532l0.381-0.301c-0.152-0.005-0.326,0.109-0.307-0.014c0.235-0.132,0.527-0.456,0.365-0.52
						l0.506-0.333l-0.843,0.377c0.231-0.52-0.505-0.375-0.05-0.882c-0.013,0.006-0.038-0.59-0.698-0.233
						c0.426-0.2,0.404-0.523,0.883-0.786c-0.483,0.218-1.078,0.163-0.696-0.28l0.066-0.012c0.209-0.766-1.194-0.371-0.812-1.17
						c-0.496,0.299-0.344-0.087-0.965,0.319c-0.935-0.169,0.932-1.497-1.229-0.749c-0.217-0.19,0.372-0.486,0.43-0.645l0.135,0.008
						c-0.362-0.35-0.393-0.483-0.463-0.819c-0.265-0.088-1.29,0.201-1.148-0.186c0.431-0.018,0.322-0.122,0.296-0.237
						c0.082,0.056,0.235,0.033,0.473-0.188c-0.131,0.014-0.216,0.003-0.288-0.01c0.032-0.01,0.055-0.022,0.1-0.031
						c-0.189-0.149-0.309-0.086-0.343,0.018c-0.064,0.012-0.141,0.04-0.248,0.098c0.479-0.335-0.175-0.554,0.526-0.735
						c-0.286-0.513-1.068-0.814-1.421-1.304c0.372-0.091,0.693-0.006,0.865,0.115c-0.011,0.001-0.163-0.325-0.163-0.325
						c0.539-0.041,0.307,0.163,0.434,0.255c0.407-0.241,0.196-0.405-0.044-0.605c-0.23-0.193-0.498-0.428-0.089-0.653l-0.418-0.1
						l0.072-0.027c-0.224-0.002-0.523-0.117-0.591-0.194c0.47-0.05,1.076,0.044,1.058-0.178c0.459-0.14-0.216-0.507-0.408-0.778
						c-0.1,0.114-0.35,0.044-0.503-0.035c0.005-0.122,0.477-0.119,0.293-0.237l0.625,0.09c-0.594-0.048-0.585-0.4-0.831-0.496
						c0.468,0.026,0.366,0.257,0.709,0.344c0.022-0.447-0.023-0.234,0.049-0.668c-0.391-0.351-0.59-0.105-1.091-0.359
						c-0.055-0.251-0.407-0.619,0.028-0.766l-0.553-0.094c-0.268-0.593-0.045-0.861,0.582-0.916
						c-0.684-1.272-1.12-2.284-1.652-2.986c-0.507-0.694-1.049-1.012-1.533-1.182c-1.007-0.25-1.94,0.516-1.94,0.516
						c-0.566,0.324-0.872,0.74-1.075,1.168c-0.192,0.432-0.297,0.878-0.28,1.355C133.747,25.493,133.967,26.501,134.028,27.735z"/>
				</g>
			</g>
		</g>
	</g>
</g>
<g>
	<g>
		<g>
			<g>
				<g>
					<path class="st0" d="M144.406,54.39l-0.208,0.167C144.304,54.537,144.389,54.489,144.406,54.39z"/>
					<path class="st0" d="M158.634,92.057c0.014,0.019,0.019,0.037,0.037,0.055C158.662,92.078,158.649,92.064,158.634,92.057z"/>
					<path class="st0" d="M139.123,63.005l-0.005-0.009c-0.029-0.004-0.048-0.016-0.076-0.018L139.123,63.005z"/>
					<path class="st0" d="M137.069,52.899c-0.117,1.453-0.322,2.385-0.406,3.333c-0.057,0.486-0.036,0.939,0.044,1.463
						c0.074,0.53,0.263,1.084,0.591,1.723c0.34,1.321,1.14,2.515,1.82,3.578c1.022,0.131,0.781,1.449,1.763,1.67l-0.27,0.48
						c0.327,0.08,0.613,0.222,0.532,0.56l-0.125,0.064c0.502,0.095,0.545,0.546,0.794,0.588l-0.123,0.068l0.298,0.317l-0.206,0.057
						c0.68,0.26,1.091,0.79,1.272,1.283l0.427-0.395c0.183,1.264,1.361,0.79,1.387,2.02l-0.116,0.081
						c1.94-0.084,0.433,2.109,2.306,2.066c-0.233,0.006-0.187,0.242-0.302,0.324c0.481,0.307,0.915,0.689,1.793-0.037
						c0.239,0.312-0.07,0.474-0.376,0.794c0.382-0.321,0.762-0.192,0.979,0.024l-0.238,0.014l0.673,0.565l0.63-0.722
						c0.078,0.531-0.826,0.808-0.372,1.009l0.611-0.487c0.262,0.601-0.441,1.61-0.579,2.412c0.574,1.06,1.536,1.816,2.312,2.701
						c0.77,0.865,1.342,1.903,0.882,2.99l-0.55,0.217c-0.818,0.209,1.357,0.214,0.581,0.453l0.421,0.146
						c-0.141,0.087-0.282,0.234-0.49,0.16c0,0.196,0.142,0.178,0.423,0.289l-0.517,0.269c-0.352,0.751,0.7,1.394,0.396,2.289
						c-0.581,0.468-0.714,1.183-0.715,2.028c0.013,0.833,0.142,1.796,0.216,2.526c0.646,2.231-3.406,3.243-2.748,5.799
						c-0.138,0.027,0.061,0.294,0.154,0.324c0,0-0.19,0.469-0.379,0.939c-0.183,0.483-0.366,0.967-0.366,0.967
						s-0.215,0.583-0.344,1.434c-0.147,0.827-0.192,1.93,0.073,2.798c0.277,0.883,0.825,1.485,1.806,1.459
						c1.002-0.011,2.345-0.663,4.424-1.781l0.172,0.082c0.66-0.795,0.901-1.3,0.204-2.22c1.127,0.242,0.346-0.723,0.783-0.833
						l0.082,0.05c-0.653-0.854,1.096-0.936,0.55-1.76c0.079,0.053,0.372,0.171,0.344,0.306c0.004-0.451-0.027-1.112,0.615-0.914
						c0.192-1.034,1.015-2.402,0.232-3.43l0.16,0.106c-0.551-0.614,0.071-0.531-0.138-1.089c0.091,0.003,0.144-0.014,0.178,0.002
						c-0.538-0.638,0.289-1.29,0.09-1.741l0.436,0.096c0,0,0.037-0.229,0.074-0.457c0.04-0.225,0.065-0.463,0.065-0.463
						l-0.176,0.314c-1.152-0.407,0.909-0.506,0.292-1.355c0.155-0.291-0.429-0.752-0.944-1.156c-0.525-0.414-0.976-0.778-0.653-1.05
						c-0.539-0.369,0.898,0.38,0.505-0.126c0.636,0.057,0.376,0.264,0.894,0.204c-0.259-0.493,0.736-0.71,0.342-1.335l0.497,0.001
						c-0.894-0.802,0.697-1.513-0.23-2.032c-0.482-0.772,1.458-0.711,0.358-1.477l0.607-0.449c0.041-0.41-0.858-0.129-0.61-0.607
						c0.431-0.061,0.211-0.599,0.663-0.441c0.2-0.554-0.152-1.003-0.471-1.462c-0.347-0.449-0.621-0.935-0.341-1.728
						c-0.87,0.061-0.664-0.7-1.308-0.626c0.328-0.192-0.491-1.109,0.522-0.846c0.084,0.025,0.122,0.125-0.008,0.179l0.478-0.137
						c0.497-1.049-1.031-0.945-1.248-1.57c-0.039,0.254,0.131,0.461-0.251,0.473l-0.255-0.569l0.421-0.097
						c0,0-0.067-0.234-0.135-0.467c-0.071-0.23-0.143-0.46-0.143-0.46l-0.363,0.376c-0.018-0.508,0.617-1.123-0.265-1.149
						c-0.458,0.036-0.341,0.732-0.729,0.432c-0.036-0.667-0.116-1.704-0.443-2.371c-0.417,0.4-0.518,0.231-0.733,0.143l0.381-0.321
						c-1.016-0.189,0.692-0.907-0.215-1.16l0.314-0.164l-0.939,0.493c-1.189,0.099,0.571-0.949-0.941-0.661
						c0.251,0.169-0.761,0.802-0.819,0.393l0.428-0.238c-0.204-0.086-0.4-0.008-0.407-0.172c0.274-0.076,0.577-0.4,0.328-0.571
						l0.586-0.236l-1.029,0.148c0.125-0.649-0.794-0.731-0.39-1.301c0,0-0.318-0.88-1.012-0.549
						c0.464-0.167,0.284-0.647,0.784-0.895c-0.542,0.17-1.29-0.05-1.037-0.61l0.08-0.003c-0.181-1.092-1.643-0.745-1.623-1.822
						c-0.429,0.389-0.456-0.145-0.967,0.397c-0.525-0.093-0.447-0.615-0.475-0.953c-0.021-0.348-0.152-0.526-1.183-0.012
						c-0.31-0.244,0.196-0.655,0.201-0.877l0.146,0.009c-0.499-0.482-0.643-0.636-0.833-1.103c-0.311-0.111-1.266,0.352-1.263-0.184
						c0.447-0.06,0.286-0.191,0.206-0.344c0.113,0.068,0.258,0.028,0.418-0.297c-0.13,0.03-0.222,0.021-0.301,0.009
						c0.029-0.016,0.049-0.035,0.091-0.051c-0.253-0.191-0.352-0.093-0.348,0.054c-0.061,0.022-0.13,0.067-0.219,0.156
						c0.367-0.504-0.388-0.745,0.261-1.067c-0.232-0.354-0.574-0.604-0.934-0.846c-0.34-0.244-0.682-0.485-0.932-0.792
						c0.332-0.183,0.702-0.116,0.901,0.031l-0.281-0.432c0.511-0.142,0.383,0.182,0.53,0.294c0.316-0.402,0.041-0.608-0.246-0.851
						c-0.291-0.237-0.61-0.516-0.258-0.907l-0.44-0.063l0.063-0.051c-0.221,0.039-0.547-0.065-0.636-0.157
						c0.449-0.16,1.06-0.148,0.991-0.454c0.439-0.283-0.288-0.659-0.544-0.991c-0.084,0.175-0.341,0.13-0.504,0.054
						c-0.011-0.166,0.458-0.256,0.26-0.38l0.631-0.004c-0.595,0.055-0.634-0.423-0.891-0.504c0.467-0.058,0.399,0.274,0.75,0.323
						c-0.057-0.612-0.007-0.298-0.008-0.893c-0.43-0.394-0.596-0.028-1.123-0.273c-0.106-0.332-0.41-0.738,0.033-1.005l-0.567-0.032
						c-0.29-0.748,0.018-1.122,0.658-1.279c-0.515-1.531-0.706-2.795-1.061-3.635c-0.345-0.842-0.854-1.206-1.346-1.4
						c-1.066-0.248-2.426,0.825-2.383,0.861c-1.387,1.084-1.838,2.425-1.873,3.747c-0.017,0.67,0.019,1.356,0.144,2.067
						c0.049,0.355,0.1,0.724,0.153,1.111C136.956,52.087,137.02,52.481,137.069,52.899z"/>
				</g>
			</g>
		</g>
	</g>
</g>
</svg>